<?xml version="1.0" encoding="utf-8"?>
<!-- Generator: Adobe Illustrator 19.0.0, SVG Export Plug-In . SVG Version: 6.00 Build 0)  -->
<svg version="1.1" id="WNP_Logo_-_2023" xmlns="http://www.w3.org/2000/svg" xmlns:xlink="http://www.w3.org/1999/xlink" x="0px"
	 y="0px" viewBox="-1103 -355.8 2048 1312.6" style="enable-background:new -1103 -355.8 2048 1312.6;" xml:space="preserve">
<style type="text/css">
	.st0{fill:#EE6F2B;}
	.st1{fill:#F4E5D5;}
	.st2{fill:#FFFFFF;}
</style>
<g>
	<g>
		<path class="st0" d="M-184.2,804.8c0-6.8,0-16.5,0-31.9V594.7c0-1.9,1-2.9,2.9-2.9h69.7c53.2,0,92.9,35.8,92.9,86.1
			c0,52.3-41.6,91-95.8,91h-39.7v5.8c0,14.5,0,23.2,0,30c0,1.9-1,2.9-2.9,2.9h-24.2C-182.3,807.7-184.2,806.7-184.2,804.8z
			 M-114.5,740.9c37.7,0,66.8-25.2,66.8-62.9c0-35.8-28.1-58.1-63.9-58.1h-40.6c-1,0-1.9,1-1.9,1.9v119H-114.5z"/>
	</g>
	<g>
		<path class="st0" d="M113.9,595.7l88.1,182c6.8,13.5,9.7,20.3,12.6,26.1c1,1.9,0,3.9-2.9,3.9h-27.1c-1.9,0-3.9-1.9-4.8-2.9
			c-2.9-6.8-6.8-14.5-13.5-28.1l-3.9-7.7H46.1l-3.9,7.7c-5.8,12.6-9.7,22.3-13.5,28.1c-1,1-1.9,2.9-4.8,2.9H-1.3
			c-2.9,0-3.9-1.9-2.9-3.9c2.9-5.8,7.7-14.5,13.5-26.1l88.1-181c1.9-3.9,3.9-5.8,6.8-5.8S111,591.8,113.9,595.7z M150.6,741.8
			L105.2,646l-45.5,95.8H150.6z"/>
	</g>
	<g>
		<path class="st0" d="M373.3,658.6l55.2,91l38.7-115.2c6.8-18.4,9.7-30,13.5-39.7c1-1.9,1.9-3.9,3.9-3.9h25.2
			c1.9,0,2.9,1.9,2.9,3.9c-3.9,10.6-7.7,21.3-13.5,40.6L442,802.8c-1,3.9-3.9,5.8-6.8,5.8s-4.8-1.9-7.7-5.8l-61-100.7l-61.9,100.7
			c-1.9,2.9-3.9,4.8-6.8,4.8c-2.9,0-5.8-1.9-6.8-5.8l-56.1-165.5c-6.8-19.4-10.6-31-14.5-42.6c-1-1.9,0-3.9,2.9-3.9h25.2
			c1.9,0,3.9,1,3.9,3.9c3.9,10.6,6.8,22.3,14.5,41.6l37.7,113.2l56.1-91c1.9-2.9,3.9-4.8,6.8-4.8
			C368.4,653.8,371.3,655.7,373.3,658.6z"/>
	</g>
	<g>
		<path class="st0" d="M543.6,776.7c-1-1-1-2.9,0-3.9l14.5-15.5c1-1.9,2.9-1,4.8,0c17.4,17.4,37.7,28.1,65.8,28.1
			c26.1,0,46.5-12.6,46.5-32.9c0-46.5-127.8-38.7-127.8-106.5c0-36.8,33.9-58.1,76.5-58.1c31.9,0,57.1,12.6,75.5,28.1
			c1.9,1,1.9,3.9,1,3.9l-14.5,17.4c-1,1-2.9,1-4.8,0c-14.5-12.6-33.9-22.3-57.1-22.3c-25.2,0-45.5,11.6-45.5,28.1
			c0,44.5,127.8,37.7,127.8,106.5c0,40.6-34.8,62.9-77.4,62.9C593,812.5,564.9,798,543.6,776.7z"/>
	</g>
	<g>
		<path class="st0" d="M-812.4,359.5l55.2,91l38.7-115.2c6.8-18.4,9.7-30,13.5-39.7c1-1.9,1.9-3.9,3.9-3.9h25.2
			c1.9,0,2.9,1.9,2.9,3.9c-3.9,10.6-7.7,21.3-13.5,40.6l-57.1,167.4c-1,3.9-3.9,5.8-6.8,5.8s-4.8-1.9-7.7-5.8l-61-100.7l-61.9,100.7
			c-1.9,2.9-3.9,4.8-6.8,4.8s-5.8-1.9-6.8-5.8l-56.1-165.5c-6.8-19.4-10.6-31-14.5-42.6c-1-1.9,0-3.9,2.9-3.9h25.2
			c1.9,0,3.9,1,3.9,3.9c3.9,10.6,6.8,22.3,14.5,41.6l35.8,114.2l56.1-91c1.9-2.9,3.9-4.8,6.8-4.8
			C-817.2,353.7-815.3,355.7-812.4,359.5z"/>
	</g>
	<g>
		<path class="st0" d="M-627.5,504.7c0-10.6,0-21.3,0-38.7V334.4c0-17.4,0-28.1,0-38.7c0-1.9,1-2.9,2.9-2.9h24.2
			c1.9,0,2.9,1,2.9,2.9c0,10.6,0,21.3,0,37.7v29h112.3v-28.1c0-17.4,0-28.1,0-38.7c0-1.9,1-2.9,2.9-2.9h25.2c1,0,2.9,1,2.9,2.9
			c0,10.6,0,21.3,0,37.7V466c0,17.4,0,28.1,0,38.7c0,1.9-1,2.9-2.9,2.9h-25.2c-1,0-2.9-1-2.9-2.9c0-10.6,0-21.3,0-38.7v-76.5h-112.3
			V466c0,17.4,0,28.1,0,38.7c0,1.9-1,2.9-2.9,2.9h-24.2C-625.6,507.6-627.5,506.7-627.5,504.7z"/>
	</g>
	<g>
		<path class="st0" d="M-382.6,504.7c0-10.6,0-21.3,0-38.7V334.4c0-17.4,0-28.1,0-38.7c0-1.9,1-2.9,2.9-2.9h24.2
			c1.9,0,2.9,1,2.9,2.9c0,10.6,0,21.3,0,37.7V466c0,17.4,0,28.1,0,38.7c0,1.9-1,2.9-2.9,2.9h-24.2
			C-381.7,507.6-382.6,506.7-382.6,504.7z"/>
	</g>
	<g>
		<path class="st0" d="M-295.5,476.7c-1-1-1-2.9,0-3.9l14.5-15.5c1-1.9,2.9-1,4.8,0c17.4,17.4,37.7,28.1,65.8,28.1
			c26.1,0,46.5-12.6,46.5-32.9c0-46.5-127.8-38.7-127.8-106.5c0-36.8,33.9-58.1,76.5-58.1c31.9,0,56.1,12.6,75.5,28.1
			c1.9,1,1.9,3.9,1,3.9l-14.5,17.4c-1,1-2.9,1-4.8,0c-14.5-12.6-33.9-22.3-57.1-22.3c-25.2,0-45.5,11.6-45.5,28.1
			c0,44.5,127.8,37.7,127.8,106.5c0,40.6-34.8,62.9-77.4,62.9C-246.2,512.5-274.2,497.9-295.5,476.7z"/>
	</g>
	<g>
		<path class="st0" d="M-76.8,504.7c0-10.6,0-21.3,0-38.7V334.4c0-17.4,0-28.1,0-38.7c0-1.9,1-2.9,2.9-2.9h24.2c1.9,0,2.9,1,2.9,2.9
			c0,10.6,0,21.3,0,37.7v38.7L31.6,316c15.5-11.6,25.2-18.4,33.9-24.2c1.9-1,3.9-1,3.9,0l12.6,18.4c1,1,1,2.9-1,3.9
			c-9.7,6.8-21.3,14.5-37.7,26.1L4.5,367.3L49,459.2c9.7,19.4,15.5,31.9,21.3,42.6c1,1.9-1,3.9-2.9,3.9H41.3c-1.9,0-3.9-1-4.8-2.9
			c-4.8-9.7-9.7-21.3-18.4-39.7l-38.7-79.4l-28.1,20.3v60c0,17.4,0,28.1,0,38.7c0,1.9-1,2.9-2.9,2.9h-24.2
			C-74.9,507.6-76.8,506.7-76.8,504.7z"/>
	</g>
	<g>
		<path class="st0" d="M130.3,504.7V295.7c0-1.9,1-2.9,2.9-2.9h83.2c20.3,0,31,0,37.7,0c1.9,0,2.9,1,2.9,2.9v22.3
			c0,1.9-1,2.9-2.9,2.9c-6.8,0-17.4,0-37.7,0h-54.2c-1,0-1.9,0-1.9,1v40.6h56.1c20.3,0,31,0,37.7,0c1.9,0,2.9,1,2.9,2.9v22.3
			c0,1.9-1,2.9-2.9,2.9c-6.8,0-17.4,0-37.7,0h-56.1v88.1c0,1,1,1.9,1.9,1.9h72.6c20.3,0,31.9,0,37.7,0c1.9,0,2.9,1,2.9,2.9v22.3
			c0,1-1,2.9-2.9,2.9c-6.8,0-17.4,0-37.7,0H133.2C131.3,507.6,130.3,506.7,130.3,504.7z"/>
	</g>
	<g>
		<path class="st0" d="M325.8,504.7c0-6.8,0-16.5,0-31.9V295.7c0-1.9,1-2.9,2.9-2.9h69.7c53.2,0,92.9,35.8,92.9,86.1
			c0,41.6-24.2,71.6-60,82.3c11.6,10.6,18.4,22.3,38.7,22.3c3.9,0,8.7-1,13.5-2.9c1.9-1,3.9,0,3.9,1.9l4.8,19.4c1,1.9,0,3.9-1.9,3.9
			c-8.7,3.9-15.5,4.8-22.3,4.8c-46.5,0-51.3-41.6-88.1-41.6h-24.2v5.8c0,14.5,0,23.2,0,30c0,1-1,2.9-2.9,2.9h-25.2
			C326.8,507.6,325.8,506.7,325.8,504.7z M395.5,441.8c37.7,0,66.8-25.2,66.8-62.9c0-35.8-28.1-58.1-63.9-58.1h-40.6c-1,0-1,1-1,1.9
			v120h38.7V441.8z"/>
	</g>
	<g>
		<path class="st0" d="M537.8,476.7c-1-1-1-2.9,0-3.9l14.5-15.5c1-1.9,2.9-1,4.8,0c17.4,17.4,37.7,28.1,65.8,28.1
			c26.1,0,46.5-12.6,46.5-32.9c0-46.5-127.8-38.7-127.8-106.5c0-36.8,33.9-58.1,76.5-58.1c31.9,0,57.1,12.6,75.5,28.1
			c1.9,1,1.9,3.9,1,3.9l-14.5,17.4c-1,1-2.9,1-4.8,0c-14.5-12.6-33.9-22.3-57.1-22.3c-25.2,0-45.5,11.6-45.5,28.1
			c0,44.5,127.8,37.7,127.8,106.5c0,40.6-34.8,62.9-77.4,62.9C587.1,512.5,558.1,497.9,537.8,476.7z"/>
	</g>
	<path class="st0" d="M-374.9,594.7c-59,0-106.5,47.4-106.5,106.5s47.4,106.5,106.5,106.5s106.5-47.4,106.5-106.5
		S-315.9,594.7-374.9,594.7 M-330.4,669.3v84.2c0,3.9-3.9,5.8-6.8,1.9l-61.9-69.7v48.4c0,7.7,0,13.5,0,19.4c0,1-1,1.9-1.9,1.9h-14.5
		c-1,0-1.9-1-1.9-1.9c0-5.8,0-11.6,0-19.4v-83.2c0-4.8,3.9-5.8,7.7-1.9l61.9,68.7v-48.4c0-7.7,0-13.5,0-19.4c0-1,1-1.9,1.9-1.9h14.5
		c1,0,1.9,1,1.9,1.9v19.4H-330.4z"/>
	<path class="st1" d="M733.3-74.1c-28.1,11.6-46.5,29-58.1,39.7c-10.6-9.7-25.2-21.3-44.5-31c-22.3-10.6-42.6-15.5-57.1-18.4
		s-34.8-4.8-58.1-1.9c-21.3,2.9-39.7,8.7-52.3,13.5l0,0c13.5-30,1.9-65.8-27.1-82.3c0,0-175.2-120-280.7,8.7c0,0-24.2-5.8-50.3,2.9
		s-40.6,29-40.6,29C-98.1-149.5-161,53.7-161,53.7c-13.5,32.9,2.9,71.6,35.8,84.2c7.7,2.9,16.5,4.8,24.2,4.8
		c26.1,0,50.3-15.5,60-40.6L19-25.7c1-1,2.9-1,2.9,0l62.9,201.3c14.5,31,51.3,46.5,83.2,34.8l13.5-4.8c6.8,20.3,30,31.9,50.3,24.2
		c16.5-5.8,27.1-21.3,27.1-37.7c0-4.8-1-8.7-1.9-12.6l16.5-5.8c25.2-8.7,41.6-31,45.5-55.2c1-7.7,1-15.5-1-23.2l-3.9-9.7l-13.5-35.8
		l-58.1-151c-1-1.9,1-2.9,2.9-1.9l100.7,50.3l-4.8,26.1c-4.8,28.1-4.8,56.1-1,83.2c1.9,11.6,3.9,22.3,7.7,32.9
		c2.9,9.7,5.8,18.4,9.7,27.1c29,65.8,86.1,115.2,158.7,127.8h1.9C591,257,661.7,228.9,711,176.6c6.8-6.8,12.6-14.5,19.4-23.2
		c6.8-8.7,12.6-18.4,17.4-29c12.6-23.2,22.3-49.4,27.1-77.4l23.2-136.5C784.6-87.6,760.4-85.7,733.3-74.1"/>
	<path class="st0" d="M221.3,199.8c-2.9,0-5.8-1.9-6.8-4.8c-1-3.9,1-7.7,4.8-9.7l52.3-18.4c22.3-7.7,37.7-27.1,40.6-49.4
		c1-6.8,1-13.5-1-20.3l-17.4-44.5l-58.1-151c-1-3.9,0-7.7,2.9-9.7c2.9-2.9,6.8-2.9,9.7-1L374.2-46c8.7,4.8,18.4,7.7,29,7.7
		c20.3,0,39.7-11.6,50.3-29c1-1.9,1.9-2.9,2.9-4.8v-1c11.6-27.1,1-59-24.2-73.6c-1-1-44.5-30-99.7-43.6
		c-72.6-17.4-130.7-1-172.3,50.3l-2.9,3.9l-4.8-1c0,0-23.2-5.8-46.5,2.9c-3.9,1-7.7-1-9.7-4.8c-1-3.9,1-7.7,4.8-9.7
		c21.3-7.7,40.6-5.8,49.4-3.9c108.4-127.8,285.5-8.7,287.5-6.8c31,17.4,44.5,56.1,31,90l0,0l-1,1.9c-1,1.9-1.9,4.8-2.9,6.8
		c-12.6,22.3-36.8,36.8-62.9,36.8c-12.6,0-25.2-2.9-35.8-9.7L253.2-90.5l70.7,183.9c1.9,8.7,1.9,17.4,1,26.1
		c-3.9,28.1-23.2,52.3-50.3,61.9l-52.3,18.4C223.2,199.8,222.3,199.8,221.3,199.8z M241.6-97.3C241.6-97.3,242.6-97.3,241.6-97.3
		L241.6-97.3z"/>
	<path class="st2" d="M83.9-1.5C57.7,8.2,28.7-6.3,20-32.4c-9.7-26.1,4.8-55.2,31-63.9s55.2,4.8,64.8,31
		C124.5-39.2,111-11.1,83.9-1.5"/>
	<path class="st2" d="M205.8-44.1c-26.1,8.7-55.2-4.8-63.9-31c-9.7-26.1,4.8-55.2,31-63.9c26.1-9.7,55.2,4.8,64.8,31
		C246.5-81.8,232.9-52.8,205.8-44.1"/>
	<path class="st0" d="M67.4,8.2c-8.7,0-17.4-1.9-25.2-5.8C28.7-4.4,18-16,13.2-30.5s-3.9-30,2.9-44.5c6.8-13.5,18.4-24.2,32.9-29
		c30-10.6,62.9,5.8,73.6,35.8c4.8,14.5,3.9,30-2.9,44.5c-6.8,13.5-18.4,24.2-32.9,29C80,7.2,74.2,8.2,67.4,8.2z M67.4-92.4
		c-4.8,0-9.7,1-14.5,1.9c-10.6,3.9-19.4,11.6-25.2,22.3c-4.8,10.6-5.8,22.3-1.9,32.9C29.7-24.7,37.4-16,48.1-10.2
		C58.7-5.3,70.3-4.4,81-8.2l0,0c10.6-3.9,19.4-11.6,25.2-22.3c4.8-10.6,5.8-22.3,1.9-32.9C102.3-80.8,85.8-92.4,67.4-92.4z"/>
	<path class="st0" d="M189.4-34.4c-24.2,0-46.5-14.5-54.2-38.7c-4.8-14.5-3.9-30,2.9-44.5c6.8-13.5,18.4-24.2,32.9-29
		c14.5-4.8,30-3.9,44.5,2.9c13.5,6.8,24.2,18.4,29,32.9c10.6,30-5.8,62.9-35.8,73.6l0,0C201.9-35.3,196.1-34.4,189.4-34.4z
		 M205.8-44.1L205.8-44.1L205.8-44.1z M189.4-135c-4.8,0-9.7,1-14.5,2.9c-10.6,3.9-19.4,11.6-25.2,22.3c-4.8,10.6-5.8,22.3-1.9,32.9
		c7.7,22.3,32.9,34.8,55.2,27.1S237.8-82.8,230-105c-3.9-10.6-11.6-19.4-22.3-24.2C202.9-133.1,196.1-135,189.4-135z"/>
	<path class="st0" d="M95.5-47c2.9,7.7-1,15.5-8.7,18.4c-7.7,2.9-15.5-1-18.4-8.7c-2.9-7.7,1-15.5,8.7-18.4
		C84.8-58.6,93.5-54.7,95.5-47"/>
	<path class="st2" d="M535.9,25.6c8.7,26.1-4.8,55.2-31,63.9c-26.1,8.7-55.2-4.8-63.9-31c-8.7-26.1,4.8-55.2,31-63.9
		C498.1-15,527.1-0.5,535.9,25.6"/>
	<path class="st2" d="M660.7,46.9c8.7,26.1-4.8,55.2-31,63.9c-26.1,8.7-55.2-4.8-63.9-31c-8.7-26.1,4.8-55.2,31-63.9
		C623,6.3,652,19.8,660.7,46.9"/>
	<path class="st0" d="M488.4,100.2c-8.7,0-17.4-1.9-25.2-5.8c-13.5-6.8-24.2-18.4-29-32.9c-4.8-14.5-3.9-30,2.9-44.5
		c6.8-13.5,18.4-24.2,32.9-29c30-10.6,62.9,5.8,73.6,35.8l0,0c4.8,14.5,3.9,30-2.9,44.5c-6.8,13.5-18.4,24.2-32.9,29
		C501,99.2,495.2,100.2,488.4,100.2z M488.4-1.5c-4.8,0-9.7,1-14.5,1.9c-10.6,3.9-19.4,11.6-25.2,22.3c-4.8,10.6-5.8,22.3-1.9,32.9
		c3.9,10.6,11.6,19.4,22.3,25.2c10.6,4.8,22.3,5.8,32.9,1.9c10.6-3.9,19.4-11.6,25.2-22.3c4.8-10.6,5.8-22.3,1.9-32.9
		C523.3,10.1,505.8-1.5,488.4-1.5z"/>
	<path class="st0" d="M482.6,34.3c2.9,7.7-1,15.5-8.7,18.4c-7.7,2.9-15.5-1-18.4-8.7c-2.9-7.7,1-15.5,8.7-18.4
		C471,22.7,479.7,26.6,482.6,34.3"/>
	<path class="st0" d="M613.3,120.5c-8.7,0-17.4-1.9-25.2-5.8c-13.5-6.8-24.2-18.4-29-32.9c-4.8-14.5-3.9-30,2.9-44.5
		c6.8-13.5,18.4-24.2,32.9-29s30-3.9,44.5,2.9c13.5,6.8,24.2,18.4,29,32.9l0,0c10.6,30-5.8,62.9-35.8,73.6
		C625.9,119.5,619.1,120.5,613.3,120.5z M613.3,19.8c-4.8,0-9.7,1-14.5,2.9c-10.6,3.9-19.4,11.6-25.2,22.3
		c-4.8,10.6-5.8,22.3-1.9,32.9c3.9,10.6,11.6,19.4,22.3,25.2c10.6,4.8,22.3,5.8,32.9,1.9c22.3-7.7,34.8-32.9,27.1-55.2l0,0
		c-3.9-10.6-11.6-19.4-22.3-25.2C625.9,20.8,620.1,19.8,613.3,19.8z"/>
	<path class="st0" d="M607.5,55.6c2.9,7.7-1,15.5-8.7,18.4c-7.7,2.9-15.5-1-18.4-8.7c-2.9-7.7,1-15.5,8.7-18.4
		C595.9,44,604.6,47.9,607.5,55.6"/>
	<path class="st0" d="M217.4-89.5c2.9,7.7-1,15.5-8.7,18.4c-7.7,2.9-15.5-1-18.4-8.7c-2.9-7.7,1-15.5,8.7-18.4
		C206.8-101.2,215.5-97.3,217.4-89.5"/>
	<path class="st0" d="M146.8,222.1c-28.1,0-55.2-15.5-67.7-42.6v-1L20-9.2L-33.2,106c-10.6,27.1-36.8,45.5-66.8,45.5
		c-9.7,0-18.4-1.9-27.1-4.8c-36.8-14.5-55.2-57.1-40.6-93.9c0-1.9,64.8-205.2,229.4-172.3c5.8-6.8,20.3-20.3,41.6-28.1
		c3.9-1,7.7,1,9.7,4.8c1,3.9-1,7.7-4.8,9.7C84.8-125.4,70.3-107,70.3-107l-2.9,3.9l-4.8-1C-92.3-137.9-154.2,56.6-154.2,58.5
		c-11.6,30,1.9,63.9,31.9,75.5c6.8,2.9,14.5,3.9,21.3,3.9c23.2,0,44.5-14.5,53.2-36.8l60-128.7c1.9-3.9,4.8-5.8,8.7-4.8
		c3.9,0,6.8,2.9,7.7,5.8l62.9,200.3c13.5,27.1,45.5,40.6,74.5,30l52.3-18.4c3.9-1,7.7,1,9.7,4.8c1,3.9-1,7.7-4.8,9.7L171,218.2
		C163.2,220.2,154.5,222.1,146.8,222.1z"/>
	<path class="st0" d="M559.1,123.4c-1,7.7-11.6,12.6-22.3,11.6c-10.6-1.9-19.4-9.7-17.4-17.4c1-7.7,11.6-12.6,22.3-11.6
		C553.3,106.9,561,115.6,559.1,123.4"/>
	<path class="st0" d="M554.2,255c-11.6,0-24.2-1-35.8-2.9h-1c-71.6-12.6-133.6-61.9-164.5-131.6c-3.9-8.7-7.7-18.4-10.6-28.1
		c-2.9-10.6-5.8-22.3-7.7-33.9c-4.8-28.1-4.8-57.1,1-86.1l5.8-35.8L375.2-47c8.7,4.8,18.4,7.7,29,7.7c20.3,0,39.7-11.6,50.3-29
		c1-1.9,1.9-3.9,2.9-5.8l1-2.9l2.9-1c17.4-7.7,35.8-12.6,54.2-14.5c20.3-2.9,40.6-1.9,61,1.9c20.3,2.9,40.6,9.7,59,18.4
		c14.5,7.7,28.1,16.5,40.6,27.1c16.5-15.5,34.8-28.1,55.2-36.8c21.3-9.7,44.5-14.5,67.7-14.5h8.7L782.7,48.9
		c-4.8,28.1-14.5,55.2-27.1,79.4c-4.8,9.7-11.6,19.4-18.4,29c-5.8,8.7-12.6,16.5-19.4,23.2C673.3,228.9,614.2,255,554.2,255z
		 M352-42.1l-2.9,16.5c-4.8,27.1-4.8,54.2,0,81.3c1.9,10.6,3.9,21.3,7.7,31.9c2.9,8.7,5.8,18.4,9.7,26.1
		c29,65.8,86.1,111.3,152.9,122.9h1c67.7,11.6,137.4-12.6,186.8-65.8c6.8-6.8,12.6-14.5,18.4-22.3c6.8-8.7,12.6-18.4,17.4-28.1
		c12.6-23.2,21.3-48.4,26.1-75.5l22.3-127.8c-18.4,1-36.8,5.8-53.2,13.5c-20.3,8.7-39.7,21.3-55.2,37.7l-4.8,4.8l-4.8-4.8
		c-13.5-11.6-28.1-22.3-42.6-30c-17.4-8.7-35.8-14.5-55.2-17.4c-19.4-3.9-37.7-3.9-56.1-1.9c-16.5,1.9-32.9,5.8-47.4,12.6
		c-1,1-1,2.9-1.9,3.9c-12.6,22.3-36.8,36.8-62.9,36.8c-12.6,0-25.2-2.9-35.8-9.7L352-42.1z"/>
	<path class="st0" d="M796.2,140.8c-1,0-1,0-1.9,0c-110.3-23.2-176.1-1.9-176.1-1.9c-3.9,1-7.7-1-9.7-4.8c-1-3.9,1-7.7,4.8-9.7
		c2.9-1,69.7-23.2,183.9,1c3.9,1,6.8,4.8,5.8,8.7C803,138.9,799.1,140.8,796.2,140.8z"/>
	<path class="st0" d="M783.6,218.2c-1,0-2.9,0-3.9-1c-70.7-48.4-166.5-49.4-168.4-48.4l0,0c-3.9,0-6.8-2.9-7.7-6.8
		c0-3.9,2.9-7.7,6.8-7.7s101.6,0,176.1,51.3c2.9,1.9,3.9,6.8,1.9,9.7C787.5,216.3,785.6,218.2,783.6,218.2z"/>
	<path class="st0" d="M791.4,177.6c-1,0-1.9,0-2.9,0c-78.4-28.1-174.2-23.2-175.2-23.2c-3.9,0-7.7-2.9-7.7-6.8
		c0-3.9,2.9-7.7,6.8-7.7c3.9,0,99.7-5.8,181,24.2c3.9,1,5.8,5.8,3.9,9.7C797.2,175.7,794.3,177.6,791.4,177.6z"/>
	<path class="st0" d="M463.3,113.7c-1.9,0-2.9-1-4.8-1.9c0,0-39.7-30-118.1-48.4c-5.8-1-11.6-2.9-17.4-3.9c-6.8-1-14.5-2.9-22.3-3.9
		c-3.9-1-6.8-3.9-5.8-7.7c1-3.9,3.9-6.8,7.7-5.8c7.7,1,15.5,1.9,23.2,3.9c5.8,1,12.6,1.9,18.4,3.9c82.3,18.4,122.9,49.4,123.9,50.3
		c2.9,2.9,3.9,6.8,1,10.6C467.1,112.7,465.2,113.7,463.3,113.7z"/>
	<path class="st0" d="M458.4,141.8c-1,0-1.9,0-1.9,0s-43.6-15.5-96.8-17.4c-12.6-1-26.1,0-38.7,1c-3.9,1-7.7-2.9-7.7-6.8
		c0-3.9,2.9-7.7,6.8-7.7c13.5-1,28.1-1.9,40.6-1c55.2,1.9,98.7,17.4,100.7,18.4c3.9,1,5.8,5.8,4.8,9.7
		C464.2,139.8,461.3,141.8,458.4,141.8z"/>
	<path class="st0" d="M460.4,128.2c-1,0-1.9,0-2.9-1c-1,0-50.3-20.3-109.4-30c-5.8-1-10.6-1.9-16.5-1.9c-5.8-1-11.6-1-17.4-1.9
		c-3.9,0-6.8-3.9-6.8-7.7s3.9-6.8,7.7-6.8c5.8,1,12.6,1,18.4,1.9c5.8,1,10.6,1.9,16.5,2.9c61,9.7,111.3,31,113.2,31
		c3.9,1.9,5.8,5.8,3.9,9.7C466.2,126.3,463.3,128.2,460.4,128.2z"/>
	<path class="st0" d="M260,193.1c0,16.5-10.6,31.9-27.1,37.7c-20.3,6.8-43.6-3.9-50.3-24.2c-1.9-4.8-1.9-8.7-1.9-13.5
		c0-16.5,10.6-31.9,26.1-37.7c3.9-1.9,8.7-1.9,12.6-1.9c16.5,0,31.9,10.6,37.7,27.1C259,184.4,260,188.2,260,193.1"/>
</g>
</svg>
